<svg width="138" height="33" viewBox="0 0 138 33" fill="none" xmlns="http://www.w3.org/2000/svg">
<rect y="2" width="29" height="29" fill="#5287FC"/>
<path d="M37.768 26V7.644H41.85V26H37.768ZM40.888 26V22.464H50.95V26H40.888ZM40.888 18.33V14.924H50.04V18.33H40.888ZM40.888 11.154V7.644H50.82V11.154H40.888ZM60.3791 26.286C58.8711 26.286 57.5711 26.0433 56.4791 25.558C55.4044 25.0553 54.4164 24.3013 53.5151 23.296L56.1671 20.67C56.7564 21.346 57.4064 21.8747 58.1171 22.256C58.8451 22.62 59.6857 22.802 60.6391 22.802C61.5057 22.802 62.1731 22.646 62.6411 22.334C63.1264 22.022 63.3691 21.5887 63.3691 21.034C63.3691 20.5313 63.2131 20.124 62.9011 19.812C62.5891 19.5 62.1731 19.2313 61.6531 19.006C61.1504 18.7807 60.5871 18.564 59.9631 18.356C59.3564 18.148 58.7497 17.914 58.1431 17.654C57.5364 17.3767 56.9731 17.0387 56.4531 16.64C55.9504 16.224 55.5431 15.7127 55.2311 15.106C54.9191 14.482 54.7631 13.702 54.7631 12.766C54.7631 11.6393 55.0317 10.6687 55.5691 9.854C56.1237 9.03933 56.8864 8.424 57.8571 8.008C58.8277 7.57467 59.9457 7.358 61.2111 7.358C62.4937 7.358 63.6637 7.58333 64.7211 8.034C65.7957 8.48467 66.6797 9.1 67.3731 9.88L64.7211 12.506C64.1664 11.934 63.6031 11.5093 63.0311 11.232C62.4764 10.9547 61.8437 10.816 61.1331 10.816C60.4224 10.816 59.8591 10.9547 59.4431 11.232C59.0271 11.492 58.8191 11.8733 58.8191 12.376C58.8191 12.844 58.9751 13.2253 59.2871 13.52C59.5991 13.7973 60.0064 14.04 60.5091 14.248C61.0291 14.456 61.5924 14.664 62.1991 14.872C62.8231 15.08 63.4384 15.3227 64.0451 15.6C64.6517 15.8773 65.2064 16.2327 65.7091 16.666C66.2291 17.082 66.6451 17.6193 66.9571 18.278C67.2691 18.9193 67.4251 19.7167 67.4251 20.67C67.4251 22.4207 66.8011 23.7987 65.5531 24.804C64.3051 25.792 62.5804 26.286 60.3791 26.286ZM80.4476 26.286C79.0783 26.286 77.8043 26.052 76.6256 25.584C75.4643 25.0987 74.4416 24.4227 73.5576 23.556C72.6909 22.6893 72.0149 21.684 71.5296 20.54C71.0443 19.3787 70.8016 18.1307 70.8016 16.796C70.8016 15.4613 71.0443 14.222 71.5296 13.078C72.0149 11.9167 72.6909 10.9113 73.5576 10.062C74.4243 9.21267 75.4383 8.554 76.5996 8.086C77.7783 7.60067 79.0523 7.358 80.4216 7.358C81.8776 7.358 83.1689 7.592 84.2956 8.06C85.4396 8.528 86.4363 9.16933 87.2856 9.984L84.5556 12.74C84.0703 12.22 83.4809 11.8127 82.7876 11.518C82.1116 11.2233 81.3229 11.076 80.4216 11.076C79.6243 11.076 78.8876 11.2147 78.2116 11.492C77.5529 11.752 76.9809 12.1333 76.4956 12.636C76.0276 13.1387 75.6549 13.7453 75.3776 14.456C75.1176 15.1667 74.9876 15.9467 74.9876 16.796C74.9876 17.6627 75.1176 18.4513 75.3776 19.162C75.6549 19.8727 76.0276 20.4793 76.4956 20.982C76.9809 21.4847 77.5529 21.8747 78.2116 22.152C78.8876 22.4293 79.6243 22.568 80.4216 22.568C81.3576 22.568 82.1723 22.4207 82.8656 22.126C83.5589 21.8313 84.1569 21.424 84.6596 20.904L87.4156 23.66C86.5316 24.4747 85.5176 25.116 84.3736 25.584C83.2469 26.052 81.9383 26.286 80.4476 26.286Z" fill="#5192FB"/>
<path d="M95.8327 26.26C94.6714 26.26 93.6314 25.974 92.7127 25.402C91.8114 24.83 91.092 24.05 90.5547 23.062C90.0347 22.074 89.7747 20.9473 89.7747 19.682C89.7747 18.4167 90.0347 17.29 90.5547 16.302C91.092 15.314 91.8114 14.534 92.7127 13.962C93.6314 13.39 94.6714 13.104 95.8327 13.104C96.682 13.104 97.4447 13.2687 98.1207 13.598C98.814 13.9273 99.3774 14.3867 99.8107 14.976C100.244 15.548 100.487 16.2067 100.539 16.952V22.412C100.487 23.1573 100.244 23.8247 99.8107 24.414C99.3947 24.986 98.84 25.4367 98.1467 25.766C97.4534 26.0953 96.682 26.26 95.8327 26.26ZM96.6387 22.672C97.488 22.672 98.1727 22.3947 98.6927 21.84C99.2127 21.268 99.4727 20.5487 99.4727 19.682C99.4727 19.0927 99.3514 18.5727 99.1087 18.122C98.8834 17.6713 98.554 17.3247 98.1207 17.082C97.7047 16.822 97.2194 16.692 96.6647 16.692C96.11 16.692 95.616 16.822 95.1827 17.082C94.7667 17.3247 94.4287 17.6713 94.1687 18.122C93.926 18.5727 93.8047 19.0927 93.8047 19.682C93.8047 20.254 93.926 20.7653 94.1687 21.216C94.4114 21.6667 94.7494 22.022 95.1827 22.282C95.616 22.542 96.1014 22.672 96.6387 22.672ZM99.3167 26V22.594L99.9147 19.526L99.3167 16.458V13.364H103.217V26H99.3167ZM114.858 26.26C114.008 26.26 113.228 26.0953 112.518 25.766C111.807 25.4367 111.226 24.986 110.776 24.414C110.325 23.8247 110.065 23.1573 109.996 22.412V17.082C110.065 16.3367 110.325 15.6607 110.776 15.054C111.226 14.4473 111.807 13.9707 112.518 13.624C113.228 13.2773 114.008 13.104 114.858 13.104C116.054 13.104 117.111 13.39 118.03 13.962C118.966 14.534 119.694 15.314 120.214 16.302C120.751 17.29 121.02 18.4167 121.02 19.682C121.02 20.9473 120.751 22.074 120.214 23.062C119.694 24.05 118.966 24.83 118.03 25.402C117.111 25.974 116.054 26.26 114.858 26.26ZM107.578 31.33V13.364H111.556V16.614L110.906 19.682L111.504 22.75V31.33H107.578ZM114.13 22.672C114.702 22.672 115.196 22.542 115.612 22.282C116.045 22.022 116.383 21.6667 116.626 21.216C116.868 20.7653 116.99 20.254 116.99 19.682C116.99 19.0927 116.868 18.5727 116.626 18.122C116.383 17.6713 116.045 17.3247 115.612 17.082C115.196 16.822 114.71 16.692 114.156 16.692C113.601 16.692 113.107 16.822 112.674 17.082C112.258 17.3247 111.928 17.6713 111.686 18.122C111.443 18.5727 111.322 19.0927 111.322 19.682C111.322 20.254 111.434 20.7653 111.66 21.216C111.902 21.6667 112.24 22.022 112.674 22.282C113.107 22.542 113.592 22.672 114.13 22.672ZM130.84 26.286C129.471 26.286 128.249 26.0087 127.174 25.454C126.117 24.882 125.285 24.0933 124.678 23.088C124.072 22.0827 123.768 20.9473 123.768 19.682C123.768 18.4167 124.063 17.29 124.652 16.302C125.259 15.2967 126.074 14.508 127.096 13.936C128.119 13.364 129.272 13.078 130.554 13.078C131.802 13.078 132.903 13.3467 133.856 13.884C134.81 14.4213 135.555 15.1667 136.092 16.12C136.647 17.0733 136.924 18.1653 136.924 19.396C136.924 19.6213 136.907 19.864 136.872 20.124C136.855 20.3667 136.812 20.6527 136.742 20.982L125.848 21.008V18.278L135.052 18.252L133.336 19.396C133.319 18.668 133.206 18.07 132.998 17.602C132.79 17.1167 132.478 16.7527 132.062 16.51C131.664 16.25 131.17 16.12 130.58 16.12C129.956 16.12 129.41 16.2673 128.942 16.562C128.492 16.8393 128.136 17.238 127.876 17.758C127.634 18.278 127.512 18.9107 127.512 19.656C127.512 20.4013 127.642 21.0427 127.902 21.58C128.18 22.1 128.561 22.5073 129.046 22.802C129.549 23.0793 130.138 23.218 130.814 23.218C131.438 23.218 132.002 23.114 132.504 22.906C133.007 22.6807 133.449 22.3513 133.83 21.918L136.014 24.102C135.39 24.83 134.636 25.376 133.752 25.74C132.868 26.104 131.898 26.286 130.84 26.286Z" fill="white"/>
<path d="M13.25 24.8699L21.25 31L18 25.3573L25 22.528V2L4 10.4878V28.6423L13.25 24.8699Z" fill="white"/>
<path d="M13.1027 12.163C13.9215 12.163 14.5906 11.4446 14.5906 10.5768C14.5906 10.1586 14.4338 9.75756 14.1548 9.46185C13.8758 9.16613 13.4973 9 13.1027 9C12.2751 9 11.606 9.70911 11.606 10.5768C11.606 11.4446 12.2751 12.163 13.1027 12.163ZM15.7792 23.1356L21 22.0346L20.7007 20.4484L17.047 21.2415L15.8584 14.8408L17.1966 15.4007V18.0692H18.6845V14.3743L14.8107 12.6295L14.2208 12.5549C13.6926 12.5549 13.2524 12.8721 12.9618 13.348L12.2047 14.6076C11.606 15.7366 10.4175 16.5016 9 16.5016V18.0692C10.6376 18.0692 12.1343 17.2947 13.1027 16.1098L13.5429 18.4797L11.9846 20.0565V26H13.4725V21.2415L15.0396 19.6647L15.7792 23.1356Z" fill="#5287FC"/>
</svg>
