<svg width="65" height="65" viewBox="0 0 65 65" fill="none" xmlns="http://www.w3.org/2000/svg">
<rect width="65" height="65" fill="#5287FC"/>
<path d="M29.6983 51.2602L47.6294 65L40.3449 52.3526L56.0345 46.0111V0L8.96558 19.0244V59.7155L29.6983 51.2602Z" fill="white"/>
<path d="M29.368 22.779C31.2032 22.779 32.703 21.1687 32.703 19.2237C32.703 18.2864 32.3516 17.3874 31.7262 16.7246C31.1008 16.0618 30.2525 15.6895 29.368 15.6895C27.5131 15.6895 26.0134 17.2788 26.0134 19.2237C26.0134 21.1687 27.5131 22.779 29.368 22.779ZM35.367 47.3726L47.0688 44.9049L46.3979 41.3497L38.2086 43.1273L35.5446 28.781L38.544 30.0358V36.0169H41.879V27.7353L33.1963 23.8246L31.8742 23.6573C30.6902 23.6573 29.7035 24.3683 29.0523 25.4349L27.3552 28.2582C26.0134 30.7886 23.3494 32.5035 20.1723 32.5035V36.0169C23.8427 36.0169 27.1974 34.2811 29.368 31.6251L30.3547 36.937L26.8619 40.4713V53.7929H30.1968V43.1273L33.7094 39.593L35.367 47.3726Z" fill="#5287FC"/>
</svg>
