<svg width="42" height="42" viewBox="0 0 42 42" fill="none" xmlns="http://www.w3.org/2000/svg">
<path d="M26.3327 26V24.6667C26.3327 23.9594 26.0517 23.2811 25.5516 22.781C25.0515 22.281 24.3733 22 23.666 22H18.3327C17.6254 22 16.9472 22.281 16.4471 22.781C15.947 23.2811 15.666 23.9594 15.666 24.6667V26" stroke="#F8FAFC" stroke-width="1.5" stroke-linecap="round" stroke-linejoin="round"/>
<path d="M21.0007 19.3333C22.4734 19.3333 23.6673 18.1394 23.6673 16.6667C23.6673 15.1939 22.4734 14 21.0007 14C19.5279 14 18.334 15.1939 18.334 16.6667C18.334 18.1394 19.5279 19.3333 21.0007 19.3333Z" stroke="#F8FAFC" stroke-width="1.5" stroke-linecap="round" stroke-linejoin="round"/>
<circle cx="21.5" cy="16.5" r="2.5" fill="#F8FAFC"/>
<path d="M17 22H25L26.5 26.75H15.5L17 22Z" fill="#F8FAFC"/>
</svg>
