<svg width="24" height="24" viewBox="0 0 24 24" fill="none" xmlns="http://www.w3.org/2000/svg">
<g id="icon">
<path id="Vector" d="M12.0002 13.2287L6.08161 19.1473C5.92009 19.3088 5.71705 19.3915 5.47249 19.3952C5.22796 19.399 5.02119 19.3163 4.85218 19.1473C4.68315 18.9783 4.59863 18.7734 4.59863 18.5326C4.59863 18.2918 4.68315 18.0869 4.85218 17.9179L10.7708 11.9993L4.85218 6.08063C4.69063 5.91911 4.608 5.71607 4.60426 5.47152C4.60051 5.22699 4.68315 5.02021 4.85218 4.8512C5.02119 4.68217 5.2261 4.59766 5.4669 4.59766C5.7077 4.59766 5.9126 4.68217 6.08161 4.8512L12.0002 10.7698L17.9188 4.8512C18.0804 4.68966 18.2834 4.60702 18.528 4.60329C18.7725 4.59953 18.9793 4.68217 19.1483 4.8512C19.3173 5.02021 19.4018 5.22512 19.4018 5.46592C19.4018 5.70672 19.3173 5.91162 19.1483 6.08063L13.2297 11.9993L19.1483 17.9179C19.3098 18.0794 19.3925 18.2824 19.3962 18.527C19.3999 18.7715 19.3173 18.9783 19.1483 19.1473C18.9793 19.3163 18.7744 19.4008 18.5336 19.4008C18.2928 19.4008 18.0879 19.3163 17.9188 19.1473L12.0002 13.2287Z" fill="#F1F1F5"/>
</g>
</svg>