<svg width="21" height="20" viewBox="0 0 21 20" fill="none" xmlns="http://www.w3.org/2000/svg">
<g id="icon">
<path id="Vector" d="M5.5322 14.5839L3.86395 16.2522C3.62677 16.4894 3.35407 16.543 3.04585 16.4132C2.73761 16.2834 2.5835 16.0497 2.5835 15.7121V3.5904C2.5835 3.16946 2.72933 2.81315 3.021 2.52148C3.31266 2.22982 3.66897 2.08398 4.08991 2.08398H16.9104C17.3313 2.08398 17.6876 2.22982 17.9793 2.52148C18.271 2.81315 18.4168 3.16946 18.4168 3.5904V13.0775C18.4168 13.4985 18.271 13.8548 17.9793 14.1464C17.6876 14.4381 17.3313 14.5839 16.9104 14.5839H5.5322Z" fill="url(#paint0_linear_5202_8039)"/>
</g>
<defs>
<linearGradient id="paint0_linear_5202_8039" x1="2.5835" y1="2.08398" x2="18.7318" y2="2.44639" gradientUnits="userSpaceOnUse">
<stop stop-color="#5097FA"/>
<stop offset="1" stop-color="#5363FF"/>
</linearGradient>
</defs>
</svg>
