<svg width="19" height="19" viewBox="0 0 19 19" fill="none" xmlns="http://www.w3.org/2000/svg">
<path d="M7.99997 15.75C5.83716 15.75 4.00479 14.999 2.50287 13.4971C1.00096 11.9952 0.25 10.1628 0.25 8.00001C0.25 5.83719 1.00096 4.00482 2.50287 2.50291C4.00479 1.00099 5.83716 0.250031 7.99997 0.250031C10.1628 0.250031 11.9952 1.00099 13.4971 2.50291C14.999 4.00482 15.75 5.83719 15.75 8.00001C15.75 8.95899 15.5951 9.84136 15.2855 10.6471C14.9759 11.4529 14.5384 12.2103 13.973 12.9192L18.4154 17.3616C18.5602 17.5064 18.6311 17.6821 18.6279 17.8885C18.6247 18.0949 18.5538 18.2705 18.4154 18.4154C18.2705 18.5603 18.0933 18.6327 17.8836 18.6327C17.674 18.6327 17.4968 18.5603 17.3519 18.4154L12.9096 13.9731C12.2006 14.5384 11.4448 14.9759 10.6423 15.2856C9.83973 15.5952 8.95896 15.75 7.99997 15.75ZM7.99997 14.25C9.73074 14.25 11.2051 13.6411 12.4231 12.4231C13.641 11.2051 14.25 9.73077 14.25 8.00001C14.25 6.26924 13.641 4.79487 12.4231 3.57691C11.2051 2.35896 9.73074 1.74998 7.99997 1.74998C6.26921 1.74998 4.79484 2.35896 3.57687 3.57691C2.35892 4.79487 1.74995 6.26924 1.74995 8.00001C1.74995 9.73077 2.35892 11.2051 3.57687 12.4231C4.79484 13.6411 6.26921 14.25 7.99997 14.25Z" fill="#9FA6B2"/>
</svg>
