<svg width="18" height="12" viewBox="0 0 18 12" fill="none" xmlns="http://www.w3.org/2000/svg">
<path d="M1.25 11.6347C1.0375 11.6347 0.859375 11.5628 0.715625 11.419C0.571875 11.2751 0.5 11.0969 0.5 10.8844C0.5 10.6718 0.571875 10.4937 0.715625 10.3501C0.859375 10.2065 1.0375 10.1347 1.25 10.1347H16.75C16.9625 10.1347 17.1406 10.2066 17.2843 10.3504C17.4281 10.4942 17.5 10.6724 17.5 10.885C17.5 11.0976 17.4281 11.2757 17.2843 11.4193C17.1406 11.5629 16.9625 11.6347 16.75 11.6347H1.25ZM1.25 6.75005C1.0375 6.75005 0.859375 6.67815 0.715625 6.53435C0.571875 6.39054 0.5 6.21234 0.5 5.99975C0.5 5.78715 0.571875 5.60906 0.715625 5.46548C0.859375 5.32189 1.0375 5.2501 1.25 5.2501H16.75C16.9625 5.2501 17.1406 5.322 17.2843 5.4658C17.4281 5.60962 17.5 5.78782 17.5 6.0004C17.5 6.213 17.4281 6.39109 17.2843 6.53468C17.1406 6.67826 16.9625 6.75005 16.75 6.75005H1.25ZM1.25 1.86545C1.0375 1.86545 0.859375 1.79355 0.715625 1.64973C0.571875 1.50593 0.5 1.32773 0.5 1.11513C0.5 0.902544 0.571875 0.724461 0.715625 0.580878C0.859375 0.437278 1.0375 0.365479 1.25 0.365479H16.75C16.9625 0.365479 17.1406 0.437386 17.2843 0.581203C17.4281 0.725019 17.5 0.90322 17.5 1.1158C17.5 1.3284 17.4281 1.50649 17.2843 1.65008C17.1406 1.79366 16.9625 1.86545 16.75 1.86545H1.25Z" fill="#9FA6B2"/>
</svg>
