<svg width="56" height="56" viewBox="0 0 56 56" fill="none" xmlns="http://www.w3.org/2000/svg">
<path fill-rule="evenodd" clip-rule="evenodd" d="M32.0189 23.2419C30.9438 22.2125 29.4799 21.6407 27.993 21.6635C25.2481 21.6635 22.9378 23.4935 22.0914 25.9868L18.6145 23.2876C20.3987 19.7421 24.0129 17.5004 27.993 17.5004C30.6007 17.4775 33.1169 18.4383 35.0155 20.2225L32.0189 23.2419ZM22.092 30.0137C21.6574 28.7098 21.6574 27.2916 22.092 25.9878L18.6151 23.2886C17.1284 26.262 17.1283 29.7614 18.6147 32.7121L18.6145 32.7123C20.3987 36.2578 24.0129 38.4995 27.993 38.4995C30.8224 38.4995 33.1965 37.5663 34.9339 35.9724L34.9472 35.9828C36.9373 34.13 38.081 31.4308 38.081 28.2512C38.081 27.5421 38.0124 26.8101 37.898 26.1239H27.9934V30.1727H33.6663C33.4375 31.4765 32.6827 32.6203 31.5618 33.3522L31.6797 33.4438L31.5615 33.3527C30.6236 33.9932 29.4113 34.3592 27.993 34.3592C25.2481 34.3592 22.9378 32.5064 22.0914 30.036L18.7763 32.5877L22.092 30.0137Z" fill="#6E6E82"/>
</svg>
