<svg width="20" height="20" viewBox="0 0 20 20" fill="none" xmlns="http://www.w3.org/2000/svg">
<g id="icon">
<path id="Vector" d="M9.99984 14.8498L5.78563 17.3812C5.6287 17.4725 5.47144 17.5109 5.31382 17.4964C5.15619 17.4818 5.0135 17.4289 4.88573 17.3376C4.75798 17.2463 4.65938 17.127 4.58995 16.9797C4.5205 16.8324 4.50938 16.6695 4.55661 16.4911L5.67525 11.7251L1.95475 8.51726C1.81588 8.39693 1.72735 8.25757 1.68917 8.0992C1.65098 7.94081 1.66105 7.78692 1.71936 7.63754C1.7777 7.48815 1.86172 7.36607 1.97143 7.27132C2.08115 7.17657 2.23113 7.11467 2.42138 7.08563L7.33136 6.65821L9.23743 2.15775C9.30686 1.99038 9.41205 1.86658 9.553 1.78635C9.69397 1.70613 9.84291 1.66602 9.99984 1.66602C10.1568 1.66602 10.3057 1.70613 10.4467 1.78635C10.5876 1.86658 10.6928 1.99038 10.7622 2.15775L12.6683 6.65821L17.5783 7.08563C17.7685 7.11467 17.9185 7.17657 18.0282 7.27132C18.138 7.36607 18.222 7.48815 18.2803 7.63754C18.3386 7.78692 18.3487 7.94081 18.3105 8.0992C18.2723 8.25757 18.1838 8.39693 18.0449 8.51726L14.3244 11.7251L15.4431 16.4911C15.4903 16.6695 15.4792 16.8324 15.4097 16.9797C15.3403 17.127 15.2417 17.2463 15.1139 17.3376C14.9862 17.4289 14.8435 17.4818 14.6859 17.4964C14.5282 17.5109 14.371 17.4725 14.214 17.3812L9.99984 14.8498Z" fill="#FFC83C"/>
</g>
</svg>
